# xmcd CD database file
#
# Track frame offsets:
#	150
#	16153
#	29845
#	44820
#	59389
#	73139
#	87382
#	99118
#	113479
#	126795
#	138144
#	153736
#	166815
#	179212
#	191590
#	206532
#	220570
#	234558
#	249147
#	262660
#
# Disc length: 3675 seconds
#
# Revision: 0
# Processed by: cddbd v1.5.2PL0 Copyright (c) Steve Scherf et al.
# Submitted via: CDex 1.70beta2
#
DISCID=140e5914
DTITLE=Louis Armstrong - When You're Smiling - Disc 1
DYEAR=1900
DGENRE=Jazz
TTITLE0=When You're Smiling
TTITLE1=All Of Me
TTITLE2=Body And Soul
TTITLE3=That's My Home
TTITLE4=I Gotta Right To Sing The Blues
TTITLE5=Public Melody Number One
TTITLE6=Alexander's Ragtime Band
TTITLE7=Once In A While
TTITLE8=I Double Dare You
TTITLE9=Love Walked In
TTITLE10=Basin Street Blues
TTITLE11=Ain't Misbehaving
TTITLE12=Jeepers Creepers
TTITLE13=When The Saints Go Marching In
TTITLE14=West End Blues
TTITLE15=Rockin' Chair
TTITLE16=That Lucky Old Sun
TTITLE17=Maybe It's Because
TTITLE18=I'll Keep The Lovelight Burning
TTITLE19=Blueberry Hill
EXTD=
EXTT0=
EXTT1=
EXTT2=
EXTT3=
EXTT4=
EXTT5=
EXTT6=
EXTT7=
EXTT8=
EXTT9=
EXTT10=
EXTT11=
EXTT12=
EXTT13=
EXTT14=
EXTT15=
EXTT16=
EXTT17=
EXTT18=
EXTT19=
PLAYORDER=
